<svg xmlns="http://www.w3.org/2000/svg" version="1.1" xmlns:xlink="http://www.w3.org/1999/xlink" xmlns:svgjs="http://svgjs.dev/svgjs" viewBox="0 0 11.770289499315297 1.8098966784317738"><g transform="matrix(1,0,0,1,3.228869785835004,0.37619833921588697)"><g><path d=" M 0.8325 0.7619999999999999 L 0.2235 0.7619999999999999 L 0.09 1.0574999999999999 L 0.0075 1.0574999999999999 L 0.4905 0.00749999999999984 L 0.5670000000000001 0.00749999999999984 L 1.05 1.0574999999999999 L 0.9675 1.0574999999999999 L 0.8325 0.7619999999999999 Z M 0.804 0.6974999999999999 L 0.528 0.09149999999999991 L 0.2535 0.6974999999999999 L 0.804 0.6974999999999999 Z M 1.9934340820312502 1.0724999999999998 L 1.84193408203125 0.9134999999999999 Q 1.7774340820312502 0.9884999999999999 1.6889340820312502 1.0267499999999998 Q 1.6004340820312501 1.065 1.49243408203125 1.065 Q 1.39343408203125 1.065 1.31543408203125 1.0319999999999998 Q 1.2374340820312502 0.9989999999999999 1.19393408203125 0.9389999999999998 Q 1.1504340820312502 0.8789999999999999 1.1504340820312502 0.8024999999999999 Q 1.1504340820312502 0.7109999999999999 1.21193408203125 0.6352499999999999 Q 1.2734340820312502 0.5594999999999999 1.42193408203125 0.4724999999999999 L 1.4204340820312502 0.4694999999999999 Q 1.3424340820312501 0.38849999999999985 1.3139340820312502 0.3337499999999999 Q 1.2854340820312502 0.2789999999999999 1.2854340820312502 0.21599999999999986 Q 1.2854340820312502 0.11849999999999983 1.35293408203125 0.05999999999999983 Q 1.4204340820312502 0.0014999999999998348 1.53443408203125 0.0014999999999998348 Q 1.6409340820312501 0.0014999999999998348 1.70318408203125 0.054749999999999854 Q 1.7654340820312502 0.10799999999999987 1.7654340820312502 0.20099999999999985 Q 1.7654340820312502 0.2789999999999999 1.7121840820312502 0.34124999999999983 Q 1.6589340820312501 0.40349999999999986 1.5254340820312502 0.4814999999999998 L 1.8359340820312502 0.8099999999999998 Q 1.8869340820312501 0.7199999999999999 1.9109340820312501 0.5969999999999999 L 1.97243408203125 0.6164999999999998 Q 1.9424340820312502 0.7619999999999999 1.8824340820312502 0.8579999999999999 L 2.03843408203125 1.023 L 1.9934340820312502 1.0724999999999998 Z M 1.38143408203125 0.3112499999999999 Q 1.4069340820312501 0.3569999999999999 1.48193408203125 0.4364999999999999 Q 1.6064340820312502 0.3644999999999998 1.6529340820312501 0.3142499999999999 Q 1.6994340820312501 0.2639999999999999 1.6994340820312501 0.2024999999999999 Q 1.6994340820312501 0.13649999999999984 1.65593408203125 0.09824999999999984 Q 1.6124340820312502 0.05999999999999983 1.53443408203125 0.05999999999999983 Q 1.4504340820312502 0.05999999999999983 1.4031840820312502 0.1027499999999999 Q 1.3559340820312502 0.14549999999999985 1.3559340820312502 0.21599999999999986 Q 1.3559340820312502 0.26549999999999985 1.38143408203125 0.3112499999999999 Z M 1.79693408203125 0.8654999999999999 L 1.4654340820312501 0.5159999999999999 Q 1.32743408203125 0.5969999999999999 1.27568408203125 0.6584999999999999 Q 1.22393408203125 0.7199999999999999 1.22393408203125 0.7964999999999999 Q 1.22393408203125 0.8879999999999999 1.29968408203125 0.9449999999999998 Q 1.37543408203125 1.0019999999999998 1.4954340820312502 1.0019999999999998 Q 1.6874340820312501 1.0019999999999998 1.79693408203125 0.8654999999999999 Z M 2.3091364746093754 1.0252499999999998 Q 2.204886474609375 0.9854999999999998 2.146386474609375 0.9224999999999999 L 2.1808864746093755 0.8654999999999999 Q 2.2363864746093753 0.9239999999999999 2.3301364746093753 0.9607499999999999 Q 2.4238864746093753 0.9974999999999998 2.5273864746093753 0.9974999999999998 Q 2.677386474609375 0.9974999999999998 2.7538864746093754 0.9404999999999999 Q 2.830386474609375 0.8834999999999998 2.830386474609375 0.7919999999999998 Q 2.830386474609375 0.7214999999999998 2.789886474609375 0.6794999999999999 Q 2.7493864746093752 0.6375 2.689386474609375 0.6149999999999999 Q 2.629386474609375 0.5924999999999998 2.5273864746093753 0.5684999999999999 Q 2.4118864746093753 0.5399999999999999 2.3421364746093754 0.5129999999999999 Q 2.2723864746093754 0.4859999999999999 2.2236364746093753 0.42974999999999985 Q 2.1748864746093752 0.37349999999999983 2.1748864746093752 0.2789999999999999 Q 2.1748864746093752 0.2024999999999999 2.2153864746093754 0.13874999999999982 Q 2.255886474609375 0.07499999999999984 2.3391364746093752 0.03749999999999987 Q 2.4223864746093753 -2.220446049250313e-16 2.546886474609375 -2.220446049250313e-16 Q 2.6338864746093753 -2.220446049250313e-16 2.7178864746093754 0.025499999999999856 Q 2.8018864746093755 0.050999999999999934 2.863386474609375 0.09449999999999992 L 2.8348864746093754 0.15599999999999992 Q 2.771886474609375 0.11249999999999982 2.696136474609375 0.08999999999999986 Q 2.6203864746093752 0.0674999999999999 2.546886474609375 0.0674999999999999 Q 2.4013864746093754 0.0674999999999999 2.326386474609375 0.1259999999999999 Q 2.251386474609375 0.1844999999999999 2.251386474609375 0.27749999999999986 Q 2.251386474609375 0.34799999999999986 2.2918864746093752 0.3899999999999999 Q 2.3323864746093754 0.43199999999999983 2.392386474609375 0.4544999999999999 Q 2.452386474609375 0.47699999999999987 2.555886474609375 0.5024999999999998 Q 2.6713864746093754 0.5309999999999999 2.7403864746093753 0.5579999999999998 Q 2.8093864746093753 0.5849999999999999 2.8581364746093754 0.6397499999999998 Q 2.906886474609375 0.6944999999999999 2.906886474609375 0.7874999999999999 Q 2.906886474609375 0.8639999999999999 2.865636474609375 0.9269999999999998 Q 2.8243864746093754 0.9899999999999999 2.7388864746093753 1.0274999999999999 Q 2.653386474609375 1.065 2.5288864746093753 1.065 Q 2.4133864746093754 1.065 2.3091364746093754 1.0252499999999998 Z M 3.8683081054687505 0.10124999999999984 Q 3.9808081054687503 0.19499999999999984 3.9808081054687503 0.3614999999999998 Q 3.9808081054687503 0.5264999999999999 3.8683081054687505 0.6202499999999999 Q 3.75580810546875 0.7139999999999999 3.5578081054687503 0.7139999999999999 L 3.2578081054687504 0.7139999999999999 L 3.2578081054687504 1.0574999999999999 L 3.18130810546875 1.0574999999999999 L 3.18130810546875 0.00749999999999984 L 3.5578081054687503 0.00749999999999984 Q 3.75580810546875 0.00749999999999984 3.8683081054687505 0.10124999999999984 Z M 3.8143081054687507 0.5714999999999999 Q 3.9028081054687505 0.4979999999999999 3.9028081054687505 0.3614999999999998 Q 3.9028081054687505 0.22499999999999987 3.8143081054687507 0.15074999999999983 Q 3.7258081054687504 0.0764999999999999 3.5578081054687503 0.0764999999999999 L 3.2578081054687504 0.0764999999999999 L 3.2578081054687504 0.6449999999999998 L 3.5578081054687503 0.6449999999999998 Q 3.7258081054687504 0.6449999999999998 3.8143081054687507 0.5714999999999999 Z M 4.4352568359375 0.9952499999999999 Q 4.3107568359375 0.9254999999999999 4.2395068359375 0.8039999999999998 Q 4.1682568359375 0.6824999999999999 4.1682568359375 0.5324999999999999 Q 4.1682568359375 0.38249999999999984 4.2395068359375 0.2609999999999999 Q 4.3107568359375 0.13949999999999985 4.4352568359375 0.06974999999999987 Q 4.559756835937501 -2.220446049250313e-16 4.7142568359375 -2.220446049250313e-16 Q 4.868756835937501 -2.220446049250313e-16 4.9932568359375 0.06899999999999984 Q 5.1177568359375005 0.1379999999999999 5.189006835937501 0.25949999999999984 Q 5.260256835937501 0.3809999999999999 5.260256835937501 0.5324999999999999 Q 5.260256835937501 0.6839999999999999 5.189006835937501 0.8054999999999999 Q 5.1177568359375005 0.9269999999999998 4.9932568359375 0.9959999999999999 Q 4.868756835937501 1.065 4.7142568359375 1.065 Q 4.559756835937501 1.065 4.4352568359375 0.9952499999999999 Z M 4.9527568359375005 0.9344999999999999 Q 5.0592568359375 0.8744999999999998 5.120756835937501 0.7687499999999998 Q 5.1822568359375 0.6629999999999998 5.1822568359375 0.5324999999999999 Q 5.1822568359375 0.4019999999999999 5.120756835937501 0.2962499999999999 Q 5.0592568359375 0.1904999999999999 4.9527568359375005 0.13049999999999984 Q 4.846256835937501 0.0704999999999999 4.7142568359375 0.0704999999999999 Q 4.582256835937501 0.0704999999999999 4.4750068359375 0.13049999999999984 Q 4.3677568359375005 0.1904999999999999 4.306256835937501 0.2962499999999999 Q 4.2447568359375 0.4019999999999999 4.2447568359375 0.5324999999999999 Q 4.2447568359375 0.6629999999999998 4.306256835937501 0.7687499999999998 Q 4.3677568359375005 0.8744999999999998 4.4750068359375 0.9344999999999999 Q 4.582256835937501 0.9944999999999999 4.7142568359375 0.9944999999999999 Q 4.846256835937501 0.9944999999999999 4.9527568359375005 0.9344999999999999 Z M 6.269684326171876 1.0574999999999999 L 6.019184326171876 0.7064999999999999 Q 5.963684326171876 0.7139999999999999 5.917184326171876 0.7139999999999999 L 5.617184326171876 0.7139999999999999 L 5.617184326171876 1.0574999999999999 L 5.540684326171876 1.0574999999999999 L 5.540684326171876 0.00749999999999984 L 5.917184326171876 0.00749999999999984 Q 6.115184326171876 0.00749999999999984 6.227684326171876 0.10124999999999984 Q 6.340184326171876 0.19499999999999984 6.340184326171876 0.3614999999999998 Q 6.340184326171876 0.4859999999999999 6.276434326171876 0.5707499999999999 Q 6.2126843261718765 0.6554999999999999 6.094184326171876 0.69 L 6.356684326171876 1.0574999999999999 L 6.269684326171876 1.0574999999999999 Z M 5.917184326171876 0.6464999999999999 Q 6.085184326171876 0.6464999999999999 6.173684326171876 0.5722499999999999 Q 6.262184326171876 0.4979999999999999 6.262184326171876 0.3614999999999998 Q 6.262184326171876 0.22499999999999987 6.173684326171876 0.15074999999999983 Q 6.085184326171876 0.0764999999999999 5.917184326171876 0.0764999999999999 L 5.617184326171876 0.0764999999999999 L 5.617184326171876 0.6464999999999999 L 5.917184326171876 0.6464999999999999 Z M 6.821625732421877 0.0764999999999999 L 6.443625732421877 0.0764999999999999 L 6.443625732421877 0.00749999999999984 L 7.276125732421876 0.00749999999999984 L 7.276125732421876 0.0764999999999999 L 6.898125732421876 0.0764999999999999 L 6.898125732421876 1.0574999999999999 L 6.821625732421877 1.0574999999999999 L 6.821625732421877 0.0764999999999999 Z M 7.5168574218750015 1.0252499999999998 Q 7.412607421875001 0.9854999999999998 7.3541074218750015 0.9224999999999999 L 7.388607421875001 0.8654999999999999 Q 7.444107421875001 0.9239999999999999 7.537857421875001 0.9607499999999999 Q 7.631607421875001 0.9974999999999998 7.735107421875002 0.9974999999999998 Q 7.885107421875001 0.9974999999999998 7.9616074218750015 0.9404999999999999 Q 8.038107421875 0.8834999999999998 8.038107421875 0.7919999999999998 Q 8.038107421875 0.7214999999999998 7.997607421875001 0.6794999999999999 Q 7.957107421875001 0.6375 7.897107421875002 0.6149999999999999 Q 7.837107421875001 0.5924999999999998 7.735107421875002 0.5684999999999999 Q 7.619607421875001 0.5399999999999999 7.549857421875001 0.5129999999999999 Q 7.480107421875001 0.4859999999999999 7.431357421875001 0.42974999999999985 Q 7.382607421875002 0.37349999999999983 7.382607421875002 0.2789999999999999 Q 7.382607421875002 0.2024999999999999 7.4231074218750015 0.13874999999999982 Q 7.463607421875001 0.07499999999999984 7.546857421875002 0.03749999999999987 Q 7.630107421875001 -2.220446049250313e-16 7.754607421875002 -2.220446049250313e-16 Q 7.841607421875001 -2.220446049250313e-16 7.925607421875001 0.025499999999999856 Q 8.009607421875002 0.050999999999999934 8.071107421875002 0.09449999999999992 L 8.042607421875001 0.15599999999999992 Q 7.979607421875001 0.11249999999999982 7.903857421875001 0.08999999999999986 Q 7.828107421875002 0.0674999999999999 7.754607421875002 0.0674999999999999 Q 7.609107421875001 0.0674999999999999 7.534107421875001 0.1259999999999999 Q 7.459107421875001 0.1844999999999999 7.459107421875001 0.27749999999999986 Q 7.459107421875001 0.34799999999999986 7.499607421875002 0.3899999999999999 Q 7.5401074218750015 0.43199999999999983 7.600107421875001 0.4544999999999999 Q 7.660107421875002 0.47699999999999987 7.763607421875001 0.5024999999999998 Q 7.879107421875001 0.5309999999999999 7.948107421875001 0.5579999999999998 Q 8.017107421875002 0.5849999999999999 8.065857421875002 0.6397499999999998 Q 8.114607421875002 0.6944999999999999 8.114607421875002 0.7874999999999999 Q 8.114607421875002 0.8639999999999999 8.073357421875002 0.9269999999999998 Q 8.032107421875 0.9899999999999999 7.946607421875001 1.0274999999999999 Q 7.861107421875001 1.065 7.736607421875001 1.065 Q 7.621107421875001 1.065 7.5168574218750015 1.0252499999999998 Z" fill="#102036" fill-rule="nonzero"></path></g><g></g><g clip-path="url(&quot;#SvgjsClipPath1002&quot;)"><g clip-path="url(&quot;#SvgjsClipPath1000&quot;)"><path d=" M -0.895293465438536 1.0832517951950682 L -1.212375167221032 1.0832517951950682 C -1.2253482347976197 1.0832666470328849 -1.2377942292993238 1.078119691870983 -1.2469675793668789 1.068946341803429 C -1.2561409294344301 1.0597729917358751 -1.2612878845963347 1.0473269972341708 -1.261273032758516 1.0343539296575839 L -1.261273032758516 0.022866653967916893 C -1.2612878845963311 0.009893586391322158 -1.2561409294344266 -0.0025524081103812032 -1.2469675793668717 -0.011725758177933462 C -1.237794229299317 -0.02089910824548572 -1.2253482347976108 -0.02604606340738672 -1.2123751672210248 -0.02603121156956726 L -0.895293465438536 -0.02603121156956726 C -0.8682879200029077 -0.02603121156956726 -0.8463955999010517 -0.004138891467712472 -0.8463955999010517 0.022866653967916893 L -0.8463955999010517 1.0343539296575839 C -0.8463955999010517 1.0613594750932134 -0.8682879200029077 1.0832517951950682 -0.895293465438536 1.0832517951950682 Z M -1.1635331849584487 0.9854560641200998 L -0.9442472142509213 0.9854560641200998 L -0.9442472142509213 0.0722115857046002 L -1.1635331849584487 0.0722115857046002 Z" fill="#3682ae" transform="matrix(1,0,0,1,0,0)" fill-rule="nonzero"></path></g><g clip-path="url(&quot;#SvgjsClipPath1000&quot;)"><path d=" M -0.638565700548019 0.9765706234110025 L -0.8952934654385343 0.9765706234110025 C -0.9082665330151221 0.9765854752488194 -0.9207125275168262 0.9714385200869174 -0.929885877584381 0.9622651700193635 C -0.9390592276519325 0.9530918199518095 -0.9442061828138371 0.9406458254501052 -0.9441913309760184 0.9276727578735184 L -0.9441913309760184 0.12971547557668106 C -0.9442061828138335 0.11674240800008631 -0.939059227651929 0.10429641349838295 -0.9298858775843741 0.0951230634308307 C -0.9207125275168191 0.08594971336327843 -0.9082665330151132 0.08080275820137744 -0.8952934654385272 0.08081761003919778 L -0.638565700548019 0.08081761003919778 C -0.6255926329714332 0.08080275820138008 -0.6131466384697286 0.08594971336328285 -0.6039732884021758 0.09512306343083686 C -0.5947999383346207 0.10429641349839089 -0.5896529831727197 0.11674240800009425 -0.5896678350105349 0.12971547557668106 L -0.5896678350105349 0.9276727578735184 C -0.5896529831727197 0.9406458254501131 -0.5947999383346243 0.9530918199518165 -0.6039732884021793 0.9622651700193687 C -0.6131466384697357 0.971438520086921 -0.6255926329714381 0.9765854752488221 -0.6385657005480261 0.9765706234110025 Z M -0.84639559990105 0.8787748923360351 L -0.6874635660855031 0.8787748923360351 L -0.6874635660855031 0.17838980801456475 L -0.84639559990105 0.17838980801456475 Z" fill="#3682ae" transform="matrix(1,0,0,1,0,0)" fill-rule="nonzero"></path></g><g clip-path="url(&quot;#SvgjsClipPath1000&quot;)"><path d=" M -0.4488419822625831 0.6679831794133049 L -0.638565700548019 0.6679831794133049 C -0.6655712459836476 0.6679831794133049 -0.6874635660855031 0.6460908593114502 -0.6874635660855031 0.6190853138758208 L -0.6874635660855031 0.4383588028492806 C -0.6874635660855031 0.4113532574136512 -0.6655712459836476 0.38946093731179643 -0.638565700548019 0.38946093731179643 L -0.4488419822625831 0.38946093731179643 C -0.4218364368269545 0.38946093731179643 -0.399944116725099 0.4113532574136512 -0.399944116725099 0.4383588028492806 L -0.399944116725099 0.6190853138758208 C -0.399944116725099 0.6460908593114502 -0.4218364368269545 0.6679831794133049 -0.4488419822625831 0.6679831794133049 Z M -0.5896678350105349 0.5701874483383366 L -0.4977398478000672 0.5701874483383366 L -0.4977398478000672 0.48725666838676385 L -0.5897237182854376 0.48725666838676385 Z" fill="#3682ae" transform="matrix(1,0,0,1,0,0)" fill-rule="nonzero"></path></g><g clip-path="url(&quot;#SvgjsClipPath1000&quot;)"><path d=" M -2.06604807459315 1.0832517951950682 L -2.3831297763756476 1.0832517951950682 C -2.396102843952234 1.0832666470328849 -2.408548838453938 1.078119691870983 -2.417722188521493 1.068946341803429 C -2.426895538589044 1.0597729917358751 -2.4320424937509486 1.0473269972341708 -2.43202764191313 1.0343539296575839 L -2.43202764191313 0.022866653967916893 C -2.432042493750945 0.009893586391322158 -2.4268955385890423 -0.0025524081103812032 -2.417722188521486 -0.011725758177933462 C -2.408548838453931 -0.02089910824548572 -2.396102843952225 -0.02604606340738672 -2.3831297763756387 -0.02603121156956726 L -2.06604807459315 -0.02603121156956726 C -2.053075007016564 -0.026046063407384076 -2.04062901251486 -0.0208991082454822 -2.031455662447305 -0.011725758177928178 C -2.0222823123797538 -0.002552408110374157 -2.017135357217849 0.009893586391330082 -2.017150209055668 0.022866653967916893 L -2.017150209055668 1.0343539296575839 C -2.0171353572178528 1.0473269972341788 -2.0222823123797555 1.059772991735882 -2.031455662447312 1.0689463418034344 C -2.040629012514867 1.0781196918709866 -2.053075007016571 1.0832666470328876 -2.0660480745931586 1.0832517951950682 Z M -2.3342877941130626 0.9854560641200998 L -2.115001823405535 0.9854560641200998 L -2.115001823405535 0.0722115857046002 L -2.3342877941130626 0.0722115857046002 Z" fill="#3682ae" transform="matrix(1,0,0,1,0,0)" fill-rule="nonzero"></path></g><g clip-path="url(&quot;#SvgjsClipPath1000&quot;)"><path d=" M -2.3831297763756476 0.9765706234110025 L -2.6398575412661613 0.9765706234110025 C -2.652830608842749 0.9765854752488194 -2.665276603344453 0.9714385200869174 -2.674449953412008 0.9622651700193635 C -2.6836233034795596 0.9530918199518095 -2.688770258641464 0.9406458254501052 -2.6887554068036454 0.9276727578735184 L -2.6887554068036454 0.12971547557668106 C -2.6887702586414606 0.11674240800008631 -2.683623303479558 0.10429641349838295 -2.674449953412001 0.0951230634308307 C -2.665276603344446 0.08594971336327843 -2.65283060884274 0.08080275820137744 -2.6398575412661542 0.08081761003919778 L -2.3831297763756476 0.08081761003919778 C -2.3561242309400177 0.08081761003919778 -2.3342319108381635 0.10270993014105168 -2.3342319108381635 0.12971547557668106 L -2.3342319108381635 0.9276727578735184 C -2.3342319108381635 0.9546783033091478 -2.3561242309400177 0.9765706234110025 -2.3831297763756476 0.9765706234110025 Z M -2.590959675728679 0.8787748923360351 L -2.43202764191313 0.8787748923360351 L -2.43202764191313 0.17838980801456475 L -2.590959675728679 0.17838980801456475 Z" fill="#3682ae" transform="matrix(1,0,0,1,0,0)" fill-rule="nonzero"></path></g><g clip-path="url(&quot;#SvgjsClipPath1000&quot;)"><path d=" M -2.6398575412661613 0.6679831794133049 L -2.8298606759261005 0.6679831794133049 C -2.856866221361729 0.6679831794133049 -2.8787585414635846 0.6460908593114502 -2.8787585414635846 0.6190853138758208 L -2.8787585414635846 0.4383588028492806 C -2.8787585414635846 0.4113532574136512 -2.856866221361729 0.38946093731179643 -2.8298606759261005 0.38946093731179643 L -2.6398575412661613 0.38946093731179643 C -2.6128519958305327 0.38946093731179643 -2.590959675728679 0.4113532574136512 -2.590959675728679 0.4383588028492806 L -2.590959675728679 0.6190853138758208 C -2.590959675728679 0.6460908593114502 -2.6128519958305327 0.6679831794133049 -2.6398575412661613 0.6679831794133049 Z M -2.7806833940141167 0.5701874483383366 L -2.6887554068036454 0.5701874483383366 L -2.6887554068036454 0.48725666838676385 L -2.7806833940141167 0.48725666838676385 Z" fill="#3682ae" transform="matrix(1,0,0,1,0,0)" fill-rule="nonzero"></path></g><g clip-path="url(&quot;#SvgjsClipPath1000&quot;)"><path d=" M -1.212375167221032 0.6981042645843951 L -2.0426888656849598 0.6981042645843951 C -2.0696944111205884 0.6981042645843951 -2.091586731222444 0.6762119444825403 -2.091586731222444 0.6492063990469109 L -2.091586731222444 0.40801418457858996 C -2.091586731222444 0.38100863914296057 -2.0696944111205884 0.3591163190411058 -2.0426888656849598 0.3591163190411058 L -1.212431050495933 0.3591163190411058 C -1.1854255050603026 0.3591163190411058 -1.1635331849584487 0.38100863914296057 -1.1635331849584487 0.40801418457858996 L -1.1635331849584487 0.6493740488716104 C -1.1636254592709552 0.6762923066005853 -1.1854567687359734 0.6980736588357054 -1.212375167221032 0.6981042645843951 Z M -1.9937351168725748 0.6003085335094268 L -1.261273032758516 0.6003085335094268 L -1.261273032758516 0.45674440029137375 L -1.9937351168725748 0.45674440029137375 Z" fill="#3682ae" transform="matrix(1,0,0,1,0,0)" fill-rule="nonzero"></path></g></g></g><defs><clipPath id="SvgjsClipPath1002"><path d=" M -2.878479125089085 -0.025807678469967676 h 2.478479125089085 v 1.1091153569399352 h -2.478479125089085 Z"></path></clipPath><clipPath id="SvgjsClipPath1000"><path d=" M -2.878479125089085 -0.025807678469967676 L -0.3999999999999999 -0.025807678469967676 L -0.3999999999999999 1.0833076784699676 L -2.878479125089085 1.0833076784699676 Z"></path></clipPath></defs></svg>